<?xml version="1.0" standalone="no"?>
<!DOCTYPE svg PUBLIC "-//W3C//DTD SVG 20010904//EN" "http://www.w3.org/TR/2001/REC-SVG-20010904/DTD/svg10.dtd">
<!-- Created using Krita: https://krita.org -->
<svg xmlns="http://www.w3.org/2000/svg" 
    xmlns:xlink="http://www.w3.org/1999/xlink"
    xmlns:krita="http://krita.org/namespaces/svg/krita"
    xmlns:sodipodi="http://sodipodi.sourceforge.net/DTD/sodipodi-0.dtd"
    width="367.084pt"
    height="412.095pt"
    viewBox="0 0 367.084 412.095">
<defs/>
<path id="shape0" transform="translate(23.9569212538849, 9.45558649821452)" fill="#5f4436" fill-rule="evenodd" stroke="#000000" stroke-width="5.00114780704173" stroke-linecap="square" stroke-linejoin="bevel" d="M55.1596 201.554L55.0588 201.263C54.3581 213.839 40.4264 218.477 30.4923 225.514C26.8771 211.958 24.0429 197.998 27.0036 180.503L0 170.993C3.69028 156.208 11.0023 141.941 24.017 128.49L3.51252 127.484C9.39347 114.026 17.9851 103.279 30.5271 96.4846L6.52735 74.9732L31.5362 63.4773L16.5348 55.9715C27.3278 52.8428 37.9671 49.2527 50.0441 49.9792L32.5462 26.9692C51.0362 26.503 67.8075 29.4715 85.0571 31.4843L79.0589 19.48L78.0596 15.9789C99.1434 17.4671 114.649 23.1366 130.568 28.4959C137.536 17.9615 147.275 7.88973 170.085 0L166.077 26.0049C181.133 14.0328 197.73 5.53176 218.095 5.51419L205.086 25.5153C222.593 16.628 240.097 14.5092 257.602 13.5267L237.59 40.5275C257.522 38.7644 274.655 41.6647 290.6 46.5431L278.092 65.5441C293.66 71.8831 306.022 78.2212 313.595 84.558L298.088 100.057C312.247 107.063 317.008 114.066 322.087 121.069L298.58 130.064C307.997 155.58 313.611 176.022 311.067 185.581L294.066 177.574C296.456 189.312 298.69 200.987 294.557 210.082C266.273 201.3 256.599 180.887 252.14 157.215L237.055 172.091L225.063 129.044L209.553 152.046L187.057 117.031L171.858 151.91L153.051 111.021L150.542 143.028C141.122 133.197 132.636 121.5 124.545 109.013L109.033 141.516L96.0354 121.508C86.6298 131.006 80.4647 145.908 75.0196 162.012L71.5242 142.006L67.0127 181.014L56.514 167.008Z" sodipodi:nodetypes="cccccccccccccccccccccccccccccccccccccccccccccccc"/><path id="shape1" transform="translate(72.1610896925818, 138.45314503809)" fill="none" stroke="#000000" stroke-width="3.00068868422504" stroke-linecap="square" stroke-linejoin="bevel" d="M2.81884 0C2.81596 10.7042 -2.34763 22.5261 1.30947 33.5073" sodipodi:nodetypes="cc"/><path id="shape2" transform="translate(72.2941575706794, 103.919710106013)" fill="none" stroke="#000000" stroke-width="3.00068868422504" stroke-linecap="square" stroke-linejoin="bevel" d="M5.19552 0.526304C5.19603 -1.38376 2.5595 2.47837 2.19416 3.02607C-6.34857 15.8327 12.0828 11.5307 22.6966 11.5335" sodipodi:nodetypes="ccc"/><path id="shape3" transform="translate(103.004679979668, 59.950177041171)" fill="none" stroke="#000000" stroke-width="3.00068868422504" stroke-linecap="square" stroke-linejoin="bevel" d="M0 10.4949C0.000632032 8.14768 2.88061 5.61592 4.50278 3.99462C8.51172 -0.0121573 23.5109 16.0094 19.5041 12.0005C6.96663 -0.5437 35.149 0.00195522 42.5126 0.003938" sodipodi:nodetypes="cccc"/><path id="shape4" transform="translate(155.524944598034, 39.9522178315171)" fill="none" stroke="#000000" stroke-width="3.00068868422504" stroke-linecap="square" stroke-linejoin="bevel" d="M19.501 13.0082C19.5032 4.76464 4.16049 4.16273 0 0" sodipodi:nodetypes="cc"/><path id="shape5" transform="translate(189.01499261172, 90.4799686182644)" fill="none" stroke="#000000" stroke-width="3.00068868422504" stroke-linecap="square" stroke-linejoin="bevel" d="M0 14.9963C11.2352 14.9993 26.5051 18.652 26.5101 0" sodipodi:nodetypes="cc"/><path id="shape6" transform="translate(124.501795450924, 97.9612210189254)" fill="none" stroke="#000000" stroke-width="3.00068868422504" stroke-linecap="square" stroke-linejoin="bevel" d="M8.76547e-06 1.4963C-0.00766341 29.9891 5.02112 9.97736 15.0039 0" sodipodi:nodetypes="cc"/><path id="shape7" transform="translate(136.503750529816, 102.461445893749)" fill="none" stroke="#000000" stroke-width="3.00068868422504" stroke-linecap="square" stroke-linejoin="bevel" d="M9.00139 2.503C5.85243 2.50215 1.95997 1.96102 0 0" sodipodi:nodetypes="cc"/><path id="shape8" transform="translate(222.531300246454, 72.3418123091749)" fill="none" stroke="#000000" stroke-width="3.00068868422504" stroke-linecap="square" stroke-linejoin="bevel" d="M0 1.13614C0.000478314 -0.640212 37.0093 -1.84086 37.0062 9.64806" sodipodi:nodetypes="cc"/><path id="shape9" transform="translate(268.031913115862, 93.4976249488457)" fill="none" stroke="#000000" stroke-width="3.00068868422504" stroke-linecap="square" stroke-linejoin="bevel" d="M0 16.501C13.8362 16.5047 24.4927 28.4909 14.5055 8.50303C13.0319 5.55389 12.7438 2.23816 10.5069 0" sodipodi:nodetypes="ccc"/><path id="shape10" transform="translate(236.024433344338, 110.490080374871)" fill="none" stroke="#000000" stroke-width="3.00068868422504" stroke-linecap="square" stroke-linejoin="bevel" d="M3.02081e-07 0C-0.00118383 4.39762 3.47907 9.63234 7.49836 12.5049C26.9969 26.4403 33.7965 28.2101 20.0026 7.50711C19.427 6.6433 19.1791 3.50597 18.0032 3.50565" sodipodi:nodetypes="cccc"/><path id="shape11" transform="translate(276.52309090175, 135.510227628953)" fill="none" stroke="#000000" stroke-width="3.00068868422504" stroke-linecap="square" stroke-linejoin="bevel" d="M0 14.4998C2.92478 14.5006 22.784 26.4448 23.5026 25.0086C27.7727 16.4741 15.34 7.00558 13.0069 0" sodipodi:nodetypes="ccc"/>
</svg>
